# xmcd CD database file
#
# Track frame offsets:
#	150
#	12239
#	28039
#	46592
#
# Disc length: 832 seconds
#
# Revision: 0
# Processed by: cddbd v1.5.2PL0 Copyright (c) Steve Scherf et al.
# Submitted via: CDex 1.51
#
DISCID=22033e04
DTITLE=JoJo Leslie - For No Other Reason
DYEAR=1997
DGENRE=Country
TTITLE0=That's Me
TTITLE1=For No Other Reason
TTITLE2=Better Be Good
TTITLE3=That Was Then/This Is Now
EXTD=YEAR: 1997
EXTT0=
EXTT1=
EXTT2=
EXTT3=
PLAYORDER=
